Patient4_TMGait_0pt4_03_right_30_GRF.mot
version=1
nRows=71
nColumns=19
inDegrees=no
endheader
time	F1x	F1y	F1z	M1x	M1y	M1z	F2x	F2y	F2z	M2x	M2y	M2z	EC1x	EC1y	EC1z	EC2x	EC2y	EC2z
38.91	12.2258	745.1008	55.7217	-224.9816	-56.9239	810.0921	9.4903	7.918	-1.0372	1.7368	-0.99977	6.7759	-0.0592	0.0182	-0.0073	-0.0462	0.0165	0.9585
38.9231	9.6764	741.5917	58.4751	-224.1324	-59.3996	803.3868	6.0713	5.928	-0.76974	1.4388	-0.49527	5.3192	-0.0592	0.0182	-0.0073	-0.0462	0.0165	0.9585
38.9363	7.8064	738.9254	60.3861	-223.6662	-60.8589	797.1765	3.2595	4.3068	-0.53558	1.1998	-0.098685	4.1302	-0.0592	0.0182	-0.0073	-0.0462	0.0165	0.9585
38.9494	6.785	737.6945	61.3972	-223.7691	-61.2366	792.1741	1.1816	3.1315	-0.35367	1.0344	0.17954	3.2657	-0.0592	0.0182	-0.0073	-0.0462	0.0165	0.9585
38.9626	6.6244	738.2297	61.6227	-224.5328	-60.6553	788.7677	-0.23159	2.3819	-0.2301	0.93876	0.36429	2.7238	-0.0592	0.0182	-0.0073	-0.0462	0.0165	0.9585
38.9757	7.2436	740.5707	61.2529	-225.9472	-59.3261	787.0254	-1.0961	1.9618	-0.15485	0.89362	0.47682	2.4143	-0.0592	0.0182	-0.0073	-0.0462	0.0165	0.9585
38.9889	8.5043	744.4948	60.4985	-227.9101	-57.4875	786.7422	-1.5669	1.7764	-0.12885	0.87945	0.55568	2.2717	-0.0592	0.0182	-0.0073	-0.0462	0.0165	0.9585
39.002	10.2797	749.6102	59.5422	-230.2595	-55.3479	787.534	-1.7755	1.6958	-0.14021	0.86506	0.61952	2.1787	-0.0592	0.0182	-0.0073	-0.0462	0.0165	0.9585
39.0151	12.4321	755.4466	58.5507	-232.8008	-53.1002	788.9801	-1.8511	1.5918	-0.18172	0.81479	0.69256	2.0248	-0.0592	0.0182	-0.0073	-0.0462	0.0165	0.9585
39.0283	14.8372	761.5128	57.6383	-235.3292	-50.8855	790.6643	-1.8824	1.3557	-0.24161	0.69386	0.78848	1.7058	-0.0592	0.0182	-0.0073	-0.0462	0.0165	0.9585
39.0414	17.3391	767.3458	56.8907	-237.6499	-48.8256	792.2335	-1.917	0.85937	-0.31629	0.46016	0.91523	1.0795	-0.0592	0.0182	-0.0073	-0.0462	0.0165	0.9585
39.0546	19.8084	772.5006	56.3248	-239.5838	-46.9812	793.3455	-1.9979	-0.011872	-0.39647	0.072864	1.0728	0.022602	-0.0592	0.0182	-0.0073	-0.0462	0.0165	0.9585
39.0677	22.1245	776.5158	55.93	-240.9647	-45.3827	793.6466	-2.0906	-1.344	-0.47519	-0.49929	1.2382	-1.5716	-0.0592	0.0182	-0.0073	-0.0462	0.0165	0.9585
39.0809	24.2365	778.9123	55.6795	-241.6409	-44.029	792.7123	-2.1443	-3.14	-0.53333	-1.2584	1.363	-3.6994	-0.0592	0.0182	-0.0073	-0.0462	0.0165	0.9585
39.094	26.1375	779.1832	55.5757	-241.4573	-42.9353	790.0218	-2.0563	-5.3093	-0.5403	-2.1651	1.3642	-6.2532	-0.0592	0.0182	-0.0073	-0.0462	0.0165	0.9585
39.1071	27.8325	776.8674	55.6213	-240.2808	-42.1146	785.0877	-1.6796	-7.5545	-0.45512	-3.0973	1.1248	-8.8793	-0.0592	0.0182	-0.0073	-0.0462	0.0165	0.9585
39.1203	29.3581	771.6819	55.8345	-238.0441	-41.5845	777.5889	-0.82772	-9.3149	-0.22784	-3.824	0.50705	-10.9204	-0.0592	0.0182	-0.0073	-0.0462	0.0165	0.9585
39.1334	30.7576	763.6892	56.2286	-234.7923	-41.3515	767.5565	0.70766	-9.6996	0.20615	-3.9744	-0.63917	-11.3395	-0.0592	0.0182	-0.0073	-0.0462	0.0165	0.9585
39.1466	32.0875	753.3093	56.8221	-230.6858	-41.4204	755.3743	3.1252	-7.4008	0.90534	-3.0063	-2.449	-8.5965	-0.0592	0.0182	-0.0073	-0.0462	0.0165	0.9585
39.1597	33.3726	741.1864	57.6235	-225.9563	-41.7903	741.6746	6.5813	-0.71034	1.9141	-0.21102	-5.0193	-0.69525	-0.0592	0.0182	-0.0073	-0.0462	0.0165	0.9585
39.1729	34.6286	727.9634	58.5796	-220.8365	-42.4042	727.1089	11.051	12.3925	3.2329	5.2478	-8.3253	14.7307	-0.0592	0.0182	-0.0073	-0.0462	0.0165	0.9585
39.186	35.8216	714.0032	59.5553	-215.478	-43.1365	712.0602	16.2519	33.9908	4.7917	14.2275	-12.1463	40.1132	-0.0592	0.0182	-0.0073	-0.0462	0.0165	0.9585
39.1991	36.8633	699.1705	60.3091	-209.8816	-43.7763	696.4345	21.4547	65.7318	6.4003	27.3997	-15.9421	77.3743	-0.0592	0.0182	-0.0073	-0.0462	0.0165	0.9585
39.2123	37.6518	682.7075	60.5393	-203.8591	-44.0527	679.513	25.2858	107.9891	7.6896	44.9072	-18.7122	126.9427	-0.0592	0.0182	-0.0073	-0.0462	0.0165	0.9585
39.2254	38.0784	663.3885	59.9199	-197.0798	-43.6726	660.106	25.7055	158.8411	8.03	65.9345	-18.9076	186.5735	-0.0592	0.0182	-0.0073	-0.0462	0.0165	0.9585
39.2386	38.0529	639.8707	58.1734	-189.1813	-42.3771	636.8573	21.2938	213.8912	6.5653	88.5917	-14.9921	251.2241	-0.0592	0.0182	-0.0073	-0.0462	0.0165	0.9585
39.2517	37.5595	611.1651	55.1464	-179.909	-40.0096	608.7101	13.0074	267.0501	2.7405	110.3056	-6.8174	313.7951	-0.0592	0.0182	-0.0073	-0.0462	0.0165	0.9585
39.2649	36.6612	576.8838	50.8965	-169.182	-36.5898	575.1585	3.4162	313.1709	-3.0956	128.9545	4.1059	367.9972	-0.0592	0.0182	-0.0073	-0.0462	0.0165	0.9585
39.278	35.4229	537.1358	45.7221	-157.0477	-32.3606	536.1878	-5.5921	350.4677	-10.282	143.8249	16.2042	411.5251	-0.0592	0.0182	-0.0073	-0.0462	0.0165	0.9585
39.2911	33.837	492.4391	40.0249	-143.6474	-27.6861	492.2259	-13.1727	380.4731	-17.6626	155.6132	27.8358	446.0838	-0.0592	0.0182	-0.0073	-0.0462	0.0165	0.9585
39.3043	31.8307	443.6602	34.2509	-129.202	-23.0003	444.0869	-19.1966	406.3961	-24.5283	165.707	38.1312	475.4549	-0.0592	0.0182	-0.0073	-0.0462	0.0165	0.9585
39.3174	29.2668	392.0546	28.7002	-114.0394	-18.6277	393.0164	-23.8118	431.8267	-30.3173	175.6364	46.5573	503.8163	-0.0592	0.0182	-0.0073	-0.0462	0.0165	0.9585
39.3306	26.0022	339.1608	23.5707	-98.5702	-14.8048	340.5609	-27.1473	459.7936	-35.1339	186.6682	53.2954	534.6439	-0.0592	0.0182	-0.0073	-0.0462	0.0165	0.9585
39.3437	21.9581	286.7381	18.9432	-83.2756	-11.6458	288.4935	-29.314	492.3749	-39.2137	199.6543	58.7033	570.2823	-0.0592	0.0182	-0.0073	-0.0462	0.0165	0.9585
39.3569	17.1651	236.5883	14.9115	-68.6586	-9.2445	238.6312	-30.4517	530.2637	-43.1466	214.8458	63.5062	611.522	-0.0592	0.0182	-0.0073	-0.0462	0.0165	0.9585
39.37	11.8388	190.4307	11.5193	-55.2069	-7.5962	192.6893	-30.7622	572.6067	-47.2852	231.867	68.2048	657.3962	-0.0592	0.0182	-0.0073	-0.0462	0.0165	0.9585
39.3831	6.3567	149.6389	8.829	-43.3119	-6.658	152.028	-30.5704	617.3661	-51.8978	249.8661	73.2087	705.6429	-0.0592	0.0182	-0.0073	-0.0462	0.0165	0.9585
39.3963	1.2065	114.9613	6.8104	-33.1933	-6.2635	117.3654	-30.1455	662.0144	-56.7989	267.8132	78.4224	753.433	-0.0592	0.0182	-0.0073	-0.0462	0.0165	0.9585
39.4094	-3.2182	86.44	5.3827	-24.8697	-6.2174	88.746	-29.6579	704.021	-61.6421	284.6908	83.5035	797.9573	-0.0592	0.0182	-0.0073	-0.0462	0.0165	0.9585
39.4226	-6.6461	63.5746	4.3791	-18.2057	-6.2799	65.6821	-29.1302	741.1002	-65.8979	299.5966	87.8658	836.6797	-0.0592	0.0182	-0.0073	-0.0462	0.0165	0.9585
39.4357	-8.9349	45.5517	3.6534	-12.9697	-6.2664	47.3975	-28.4975	771.3993	-69.2496	311.7917	91.1121	867.5823	-0.0592	0.0182	-0.0073	-0.0462	0.0165	0.9585
39.4489	-9.9832	31.4724	3.0464	-8.9043	-5.9953	33.0205	-27.6934	793.6617	-71.5216	320.7663	93.016	889.3311	-0.0592	0.0182	-0.0073	-0.0462	0.0165	0.9585
39.462	-9.7783	20.5644	2.4617	-5.7822	-5.3697	21.8148	-26.7069	807.3209	-72.7654	326.28	93.6219	901.3832	-0.0592	0.0182	-0.0073	-0.0462	0.0165	0.9585
39.4751	-8.4789	12.2918	1.8544	-3.4399	-4.3954	13.2595	-25.561	812.6214	-73.0898	328.4112	93.0687	904.1097	-0.0592	0.0182	-0.0073	-0.0462	0.0165	0.9585
39.4883	-6.5521	6.3702	1.278	-1.783	-3.2652	7.0839	-24.2633	810.5406	-72.6696	327.5367	91.569	898.69	-0.0592	0.0182	-0.0073	-0.0462	0.0165	0.9585
39.5014	-4.5509	2.5231	0.80308	-0.71982	-2.2089	3.0455	-22.8385	802.659	-71.6477	324.2821	89.3132	886.9581	-0.0592	0.0182	-0.0073	-0.0462	0.0165	0.9585
39.5146	-2.7787	0.32876	0.45479	-0.12254	-1.3429	0.72546	-21.288	790.9474	-70.2011	319.4374	86.5191	871.1365	-0.0592	0.0182	-0.0073	-0.0462	0.0165	0.9585
39.5277	-1.392	-0.67003	0.22549	0.14268	-0.7042	-0.33501	-19.6466	777.5615	-68.516	313.8668	83.4255	853.6261	-0.0592	0.0182	-0.0073	-0.0462	0.0165	0.9585
39.5409	-0.39896	-0.87672	0.091919	0.18875	-0.27523	-0.56754	-17.974	764.4953	-66.8118	308.3742	80.3126	836.622	-0.0592	0.0182	-0.0073	-0.0462	0.0165	0.9585
39.554	0.23906	-0.62277	0.033885	0.10716	-0.02307	-0.31658	-16.3555	753.3494	-65.287	303.6082	77.4441	821.8646	-0.0592	0.0182	-0.0073	-0.0462	0.0165	0.9585
39.5671	0.59627	-0.14894	0.023216	-0.035771	0.098982	0.16875	-14.8592	745.2159	-64.0853	300.0173	75.0101	810.5057	-0.0592	0.0182	-0.0073	-0.0462	0.0165	0.9585
39.5803	0.75655	0.38768	0.040102	-0.19571	0.13456	0.71984	-13.5258	740.6686	-63.2635	297.8462	73.0902	803.1062	-0.0592	0.0182	-0.0073	-0.0462	0.0165	0.9585
39.5934	0.78682	0.90932	0.068145	-0.34984	0.11792	1.262	-12.3692	739.7834	-62.8133	297.1406	71.6771	799.6885	-0.0592	0.0182	-0.0073	-0.0462	0.0165	0.9585
39.6066	0.74908	1.361	0.093964	-0.4835	0.079417	1.7244	-11.3541	742.1942	-62.6894	297.77	70.7024	799.8041	-0.0592	0.0182	-0.0073	-0.0462	0.0165	0.9585
39.6197	0.67199	1.7275	0.11811	-0.59062	0.026477	2.0946	-10.4291	747.2122	-62.807	299.4722	70.0479	802.6631	-0.0592	0.0182	-0.0073	-0.0462	0.0165	0.9585
39.6329	0.58209	1.9879	0.1353	-0.66321	-0.027265	2.3464	-9.5211	753.9043	-63.0686	301.8859	69.5766	807.2191	-0.0592	0.0182	-0.0073	-0.0462	0.0165	0.9585
39.646	0.47625	2.1069	0.15498	-0.6887	-0.089716	2.4487	-8.5658	761.1904	-63.3553	304.5853	69.137	812.2925	-0.0592	0.0182	-0.0073	-0.0462	0.0165	0.9585
39.6591	0.35519	2.0394	0.17344	-0.65328	-0.15714	2.3445	-7.5046	767.9319	-63.5583	307.1165	68.5929	816.6613	-0.0592	0.0182	-0.0073	-0.0462	0.0165	0.9585
39.6723	0.21134	1.7129	0.20627	-0.53467	-0.24382	1.9483	-6.3061	773.0713	-63.5768	309.0564	67.8256	819.2116	-0.0592	0.0182	-0.0073	-0.0462	0.0165	0.9585
39.6854	0.042128	1.0472	0.24224	-0.30897	-0.33981	1.1646	-4.9418	775.7915	-63.3586	310.0726	66.769	819.0913	-0.0592	0.0182	-0.0073	-0.0462	0.0165	0.9585
39.6986	-0.1425	-0.040963	0.28989	0.048253	-0.45022	-0.10897	-3.38	775.6291	-62.8684	309.9714	65.3785	815.8307	-0.0592	0.0182	-0.0073	-0.0462	0.0165	0.9585
39.7117	-0.31528	-1.5977	0.32937	0.54802	-0.54771	-1.9176	-1.6181	772.4987	-62.1224	308.7063	63.6716	809.3823	-0.0592	0.0182	-0.0073	-0.0462	0.0165	0.9585
39.7249	-0.42905	-3.6152	0.34594	1.1905	-0.59839	-4.256	0.34053	766.6184	-61.1761	306.3529	61.709	800.0172	-0.0592	0.0182	-0.0073	-0.0462	0.0165	0.9585
39.738	-0.41056	-5.9519	0.30394	1.9339	-0.53944	-6.9783	2.4714	758.469	-60.14	303.0912	59.6083	788.2834	-0.0592	0.0182	-0.0073	-0.0462	0.0165	0.9585
39.7511	-0.16165	-8.2877	0.17015	2.6732	-0.29656	-9.7186	4.7831	748.7319	-59.1406	299.1833	57.4897	774.9142	-0.0592	0.0182	-0.0073	-0.0462	0.0165	0.9585
39.7643	0.44906	-10.0326	-0.10296	3.2152	0.22657	-11.7903	7.3057	738.2209	-58.3099	294.9437	55.467	760.7643	-0.0592	0.0182	-0.0073	-0.0462	0.0165	0.9585
39.7774	1.5601	-10.2124	-0.56734	3.2454	1.1347	-12.0529	10.081	727.7336	-57.7472	290.6845	53.6193	746.6524	-0.0592	0.0182	-0.0073	-0.0462	0.0165	0.9585
39.7906	3.3163	-7.4341	-1.2566	2.3139	2.5125	-8.875	13.1296	717.8923	-57.5103	286.6493	51.9965	733.2313	-0.0592	0.0182	-0.0073	-0.0462	0.0165	0.9585
39.8037	5.8054	0.11693	-2.1905	-0.16446	4.4095	-0.1232	16.4127	708.9627	-57.5934	282.9414	50.6111	720.8289	-0.0592	0.0182	-0.0073	-0.0462	0.0165	0.9585
39.8169	9.0129	14.5802	-3.3192	-4.873	6.7644	16.7036	19.8094	700.6742	-57.9284	279.4521	49.4446	709.2545	-0.0592	0.0182	-0.0073	-0.0462	0.0165	0.9585
39.83	12.7299	38.1212	-4.5251	-12.4962	9.3654	44.1374	23.1	692.1763	-58.3647	275.8436	48.4343	697.768	-0.0592	0.0182	-0.0073	-0.0462	0.0165	0.9585
